# Blender 3.1.0
# www.blender.org
mtllib Boneco.mtl
o Boneco
v 0.679216 3.046050 -0.679216
v 0.679216 2.597878 -0.679216
v 0.679216 3.046050 0.679216
v 0.679216 2.597878 0.679216
v -0.679216 3.046050 -0.679216
v -0.679216 2.597878 -0.679216
v -0.679216 3.046050 0.679216
v -0.679216 2.597878 0.679216
v 0.364270 2.522388 -0.784316
v 0.364270 0.609609 -0.784316
v 0.364270 2.522388 -0.055776
v 0.364270 0.609609 -0.055776
v -0.364270 2.522388 -0.784316
v -0.364270 0.609609 -0.784316
v -0.364270 2.522388 -0.055776
v -0.364270 0.609609 -0.055776
v 0.716518 3.176635 -1.136564
v 0.716518 1.813098 -1.136564
v 0.716518 3.176635 0.296472
v 0.716518 1.813098 0.296472
v -0.716518 3.176635 -1.136564
v -0.716518 1.813098 -1.136564
v -0.716518 3.176635 0.296472
v -0.716518 1.813098 0.296472
v -0.189237 1.710791 -0.564413
v -0.705317 1.155514 -0.564413
v -0.189237 1.710791 -0.275679
v -0.705317 1.155514 -0.275679
v -0.400731 1.907355 -0.564413
v -0.916811 1.352078 -0.564413
v -0.400731 1.907355 -0.275679
v -0.916811 1.352078 -0.275679
v 0.361178 1.893444 -0.564413
v 0.826046 1.294638 -0.564413
v 0.361178 1.893444 -0.275679
v 0.826046 1.294638 -0.275679
v 0.133105 1.716385 -0.564413
v 0.597973 1.117579 -0.564413
v 0.133105 1.716385 -0.275679
v 0.597973 1.117579 -0.275679
v -0.157761 0.948354 -0.586322
v -0.157761 0.075239 -0.586322
v -0.157761 0.948354 -0.253770
v -0.157761 0.075239 -0.253770
v -0.490314 0.948354 -0.586322
v -0.490314 0.075239 -0.586322
v -0.490314 0.948354 -0.253770
v -0.490314 0.075239 -0.253770
v 0.477352 0.948354 -0.586322
v 0.477352 0.075239 -0.586322
v 0.477352 0.948354 -0.253770
v 0.477352 0.075239 -0.253770
v 0.144800 0.948354 -0.586322
v 0.144800 0.075239 -0.586322
v 0.144800 0.948354 -0.253770
v 0.144800 0.075239 -0.253770
vn -0.0000 0.2241 -0.0000
vn -0.0000 -0.0000 0.6792
vn -0.6792 -0.0000 -0.0000
vn -0.0000 -0.2241 -0.0000
vn 0.6792 -0.0000 -0.0000
vn -0.0000 -0.0000 -0.6792
vn 0.6401 0.0750 -0.0000
vn -0.6494 0.0657 -0.0000
vn -0.6401 -0.0750 -0.0000
vn 0.6494 -0.0657 -0.0000
vn -0.6251 0.0876 -0.0000
vn -0.6580 -0.0556 -0.0000
vn 0.6251 -0.0876 -0.0000
vn 0.6580 0.0556 -0.0000
vt 0.625000 0.500000
vt 0.375000 0.500000
vt 0.625000 0.750000
vt 0.375000 0.750000
vt 0.875000 0.500000
vt 0.625000 0.250000
vt 0.125000 0.500000
vt 0.375000 0.250000
vt 0.875000 0.750000
vt 0.625000 1.000000
vt 0.625000 0.000000
vt 0.375000 1.000000
vt 0.375000 0.000000
vt 0.125000 0.750000
vt 0.625000 0.500000
vt 0.375000 0.500000
vt 0.625000 0.750000
vt 0.375000 0.750000
vt 0.875000 0.500000
vt 0.625000 0.250000
vt 0.125000 0.500000
vt 0.375000 0.250000
vt 0.875000 0.750000
vt 0.625000 1.000000
vt 0.625000 0.000000
vt 0.375000 1.000000
vt 0.375000 0.000000
vt 0.125000 0.750000
vt 0.625000 0.500000
vt 0.375000 0.500000
vt 0.625000 0.750000
vt 0.375000 0.750000
vt 0.875000 0.500000
vt 0.625000 0.250000
vt 0.125000 0.500000
vt 0.375000 0.250000
vt 0.875000 0.750000
vt 0.625000 1.000000
vt 0.625000 0.000000
vt 0.375000 1.000000
vt 0.375000 0.000000
vt 0.125000 0.750000
vt 0.625000 0.500000
vt 0.375000 0.500000
vt 0.625000 0.750000
vt 0.375000 0.750000
vt 0.875000 0.500000
vt 0.625000 0.250000
vt 0.125000 0.500000
vt 0.375000 0.250000
vt 0.875000 0.750000
vt 0.625000 1.000000
vt 0.625000 0.000000
vt 0.375000 1.000000
vt 0.375000 0.000000
vt 0.125000 0.750000
vt 0.625000 0.500000
vt 0.375000 0.500000
vt 0.625000 0.750000
vt 0.375000 0.750000
vt 0.875000 0.500000
vt 0.625000 0.250000
vt 0.125000 0.500000
vt 0.375000 0.250000
vt 0.875000 0.750000
vt 0.625000 1.000000
vt 0.625000 0.000000
vt 0.375000 1.000000
vt 0.375000 0.000000
vt 0.125000 0.750000
vt 0.625000 0.500000
vt 0.375000 0.500000
vt 0.625000 0.750000
vt 0.375000 0.750000
vt 0.875000 0.500000
vt 0.625000 0.250000
vt 0.125000 0.500000
vt 0.375000 0.250000
vt 0.875000 0.750000
vt 0.625000 1.000000
vt 0.625000 0.000000
vt 0.375000 1.000000
vt 0.375000 0.000000
vt 0.125000 0.750000
vt 0.625000 0.500000
vt 0.375000 0.500000
vt 0.625000 0.750000
vt 0.375000 0.750000
vt 0.875000 0.500000
vt 0.625000 0.250000
vt 0.125000 0.500000
vt 0.375000 0.250000
vt 0.875000 0.750000
vt 0.625000 1.000000
vt 0.625000 0.000000
vt 0.375000 1.000000
vt 0.375000 0.000000
vt 0.125000 0.750000
s 0
usemtl Material
f 1/1/1 5/5/1 7/9/1 3/3/1
f 4/4/2 3/3/2 7/10/2 8/12/2
f 8/13/3 7/11/3 5/6/3 6/8/3
f 6/7/4 2/2/4 4/4/4 8/14/4
f 2/2/5 1/1/5 3/3/5 4/4/5
f 6/8/6 5/6/6 1/1/6 2/2/6
f 9/15/1 13/19/1 15/23/1 11/17/1
f 12/18/2 11/17/2 15/24/2 16/26/2
f 16/27/3 15/25/3 13/20/3 14/22/3
f 14/21/4 10/16/4 12/18/4 16/28/4
f 10/16/5 9/15/5 11/17/5 12/18/5
f 14/22/6 13/20/6 9/15/6 10/16/6
f 17/29/1 21/33/1 23/37/1 19/31/1
f 20/32/2 19/31/2 23/38/2 24/40/2
f 24/41/3 23/39/3 21/34/3 22/36/3
f 22/35/4 18/30/4 20/32/4 24/42/4
f 18/30/5 17/29/5 19/31/5 20/32/5
f 22/36/6 21/34/6 17/29/6 18/30/6
f 25/43/7 29/47/7 31/51/7 27/45/7
f 28/46/2 27/45/2 31/52/2 32/54/2
f 32/55/8 31/53/8 29/48/8 30/50/8
f 30/49/9 26/44/9 28/46/9 32/56/9
f 26/44/10 25/43/10 27/45/10 28/46/10
f 30/50/6 29/48/6 25/43/6 26/44/6
f 33/57/11 37/61/11 39/65/11 35/59/11
f 36/60/2 35/59/2 39/66/2 40/68/2
f 40/69/12 39/67/12 37/62/12 38/64/12
f 38/63/13 34/58/13 36/60/13 40/70/13
f 34/58/14 33/57/14 35/59/14 36/60/14
f 38/64/6 37/62/6 33/57/6 34/58/6
f 41/71/1 45/75/1 47/79/1 43/73/1
f 44/74/2 43/73/2 47/80/2 48/82/2
f 48/83/3 47/81/3 45/76/3 46/78/3
f 46/77/4 42/72/4 44/74/4 48/84/4
f 42/72/5 41/71/5 43/73/5 44/74/5
f 46/78/6 45/76/6 41/71/6 42/72/6
f 49/85/1 53/89/1 55/93/1 51/87/1
f 52/88/2 51/87/2 55/94/2 56/96/2
f 56/97/3 55/95/3 53/90/3 54/92/3
f 54/91/4 50/86/4 52/88/4 56/98/4
f 50/86/5 49/85/5 51/87/5 52/88/5
f 54/92/6 53/90/6 49/85/6 50/86/6
